<?xml version="1.0" encoding="UTF-8" standalone="no"?>
<!DOCTYPE svg PUBLIC "-//W3C//DTD SVG 1.1//EN"
 "http://www.w3.org/Graphics/SVG/1.1/DTD/svg11.dtd">
<!-- Generated by graphviz version 12.2.1 (20241206.2353)
 -->
<!-- Title: PMOMaxAppFlow Pages: 1 -->
<svg width="472pt" height="504pt"
 viewBox="0.00 0.00 471.75 504.35" xmlns="http://www.w3.org/2000/svg" xmlns:xlink="http://www.w3.org/1999/xlink">
<g id="graph0" class="graph" transform="scale(1 1) rotate(0) translate(4 500.35)">
<title>PMOMaxAppFlow</title>
<polygon fill="white" stroke="none" points="-4,4 -4,-500.35 467.75,-500.35 467.75,4 -4,4"/>
<!-- CustomerTenant -->
<g id="node1" class="node">
<title>CustomerTenant</title>
<polygon fill="#e3f2fd" stroke="black" points="325,-496.35 181,-496.35 181,-409.95 325,-409.95 325,-496.35"/>
<text text-anchor="middle" x="253" y="-456.7" font-family="Arial" font-size="16.00">Customer Tenant</text>
<text text-anchor="middle" x="253" y="-437.95" font-family="Arial" font-size="16.00">(User)</text>
</g>
<!-- Frontend -->
<g id="node2" class="node">
<title>Frontend</title>
<polygon fill="#f5f5f5" stroke="black" points="325,-359.7 181,-359.7 181,-273.3 325,-273.3 325,-359.7"/>
<text text-anchor="middle" x="253" y="-320.05" font-family="Arial" font-size="16.00">Frontend</text>
<text text-anchor="middle" x="253" y="-301.3" font-family="Arial" font-size="16.00">(React SPA)</text>
</g>
<!-- CustomerTenant&#45;&gt;Frontend -->
<g id="edge1" class="edge">
<title>CustomerTenant&#45;&gt;Frontend</title>
<path fill="none" stroke="black" d="M191.33,-409.79C186.63,-404.32 182.54,-398.36 179.5,-391.95 175.84,-384.23 176.01,-376.83 178.72,-369.9"/>
<polygon fill="black" stroke="black" points="181.66,-371.82 183.61,-361.41 175.59,-368.33 181.66,-371.82"/>
<text text-anchor="middle" x="243.25" y="-380.55" font-family="Arial" font-size="12.00">Uploads Text/Document</text>
</g>
<!-- Frontend&#45;&gt;CustomerTenant -->
<g id="edge6" class="edge">
<title>Frontend&#45;&gt;CustomerTenant</title>
<path fill="none" stroke="black" d="M297.49,-360.03C301.33,-365.61 304.64,-371.54 307,-377.7 309.84,-385.11 309.54,-392.46 307.21,-399.48"/>
<polygon fill="black" stroke="black" points="304.23,-397.59 303.12,-408.13 310.56,-400.58 304.23,-397.59"/>
<text text-anchor="middle" x="364.91" y="-380.55" font-family="Arial" font-size="12.00">Shows PID/Assistant</text>
</g>
<!-- PartnerTenant -->
<g id="node3" class="node">
<title>PartnerTenant</title>
<polygon fill="#fff9c4" stroke="black" points="269,-223.05 125,-223.05 125,-136.65 269,-136.65 269,-223.05"/>
<text text-anchor="middle" x="197" y="-183.4" font-family="Arial" font-size="16.00">Partner Tenant</text>
<text text-anchor="middle" x="197" y="-164.65" font-family="Arial" font-size="16.00">(Backend API)</text>
</g>
<!-- Frontend&#45;&gt;PartnerTenant -->
<g id="edge2" class="edge">
<title>Frontend&#45;&gt;PartnerTenant</title>
<path fill="none" stroke="black" d="M180.6,-312.79C138.69,-307.05 89.04,-292.17 62,-255.3 41.82,-227.78 75.23,-209.2 113.86,-197.49"/>
<polygon fill="black" stroke="black" points="114.74,-200.88 123.4,-194.78 112.82,-194.15 114.74,-200.88"/>
<text text-anchor="middle" x="93.5" y="-243.9" font-family="Arial" font-size="12.00">Sends Data</text>
</g>
<!-- Frontend&#45;&gt;PartnerTenant -->
<g id="edge7" class="edge">
<title>Frontend&#45;&gt;PartnerTenant</title>
<path fill="none" stroke="black" d="M180.67,-289.49C166.26,-280.88 152.97,-269.69 144.5,-255.3 140.29,-248.16 140.01,-240.82 142.22,-233.67"/>
<polygon fill="black" stroke="black" points="145.33,-235.27 146.43,-224.73 139,-232.28 145.33,-235.27"/>
<text text-anchor="middle" x="185.75" y="-243.9" font-family="Arial" font-size="12.00">Export Request</text>
</g>
<!-- PartnerTenant&#45;&gt;Frontend -->
<g id="edge5" class="edge">
<title>PartnerTenant&#45;&gt;Frontend</title>
<path fill="none" stroke="black" d="M222.55,-223.33C225.61,-229.18 228.52,-235.19 231,-241.05 233.86,-247.81 236.5,-255.06 238.89,-262.29"/>
<polygon fill="black" stroke="black" points="235.52,-263.24 241.85,-271.73 242.19,-261.14 235.52,-263.24"/>
<text text-anchor="middle" x="271.6" y="-243.9" font-family="Arial" font-size="12.00">Returns Data</text>
</g>
<!-- PartnerTenant&#45;&gt;Frontend -->
<g id="edge8" class="edge">
<title>PartnerTenant&#45;&gt;Frontend</title>
<path fill="none" stroke="black" d="M269.38,-204.21C285.87,-213.08 301.35,-225.04 311,-241.05 315.38,-248.31 315.61,-255.68 313.21,-262.81"/>
<polygon fill="black" stroke="black" points="310.1,-261.21 308.66,-271.71 316.33,-264.4 310.1,-261.21"/>
<text text-anchor="middle" x="343.61" y="-243.9" font-family="Arial" font-size="12.00">Export File</text>
</g>
<!-- AIParsing -->
<g id="node4" class="node">
<title>AIParsing</title>
<polygon fill="#f3e5f5" stroke="black" points="144,-86.4 0,-86.4 0,0 144,0 144,-86.4"/>
<text text-anchor="middle" x="72" y="-46.75" font-family="Arial" font-size="16.00">AI/Parsing Logic</text>
<text text-anchor="middle" x="72" y="-28" font-family="Arial" font-size="16.00">(Gemini, Local)</text>
</g>
<!-- PartnerTenant&#45;&gt;AIParsing -->
<g id="edge3" class="edge">
<title>PartnerTenant&#45;&gt;AIParsing</title>
<path fill="none" stroke="black" d="M124.75,-173.8C86.91,-167.04 43.6,-151.94 19.75,-118.65 14.75,-111.67 14.23,-104.3 16.51,-97.01"/>
<polygon fill="black" stroke="black" points="19.58,-98.71 20.78,-88.18 13.28,-95.67 19.58,-98.71"/>
<text text-anchor="middle" x="61.38" y="-107.25" font-family="Arial" font-size="12.00">Parse/AI/Export</text>
</g>
<!-- GCP -->
<g id="node5" class="node">
<title>GCP</title>
<polygon fill="#e8f5e9" stroke="black" points="463.75,-86.4 284.25,-86.4 284.25,0 463.75,0 463.75,-86.4"/>
<text text-anchor="middle" x="374" y="-46.75" font-family="Arial" font-size="16.00">Google Cloud Platform</text>
<text text-anchor="middle" x="374" y="-28" font-family="Arial" font-size="16.00">(Cloud Run / GKE)</text>
</g>
<!-- PartnerTenant&#45;&gt;GCP -->
<g id="edge9" class="edge">
<title>PartnerTenant&#45;&gt;GCP</title>
<path fill="none" stroke="black" d="M221.29,-136.37C229.18,-125.01 238.66,-113.4 249.25,-104.4 256.92,-97.88 265.42,-91.89 274.27,-86.42"/>
<polygon fill="black" stroke="black" points="275.85,-89.55 282.68,-81.46 272.29,-83.52 275.85,-89.55"/>
<text text-anchor="middle" x="300.62" y="-107.25" font-family="Arial" font-size="12.00">Compliance/Health</text>
</g>
<!-- AIParsing&#45;&gt;PartnerTenant -->
<g id="edge4" class="edge">
<title>AIParsing&#45;&gt;PartnerTenant</title>
<path fill="none" stroke="black" d="M100.19,-86.52C108.13,-97.4 117.11,-108.8 126.25,-118.65 129.4,-122.04 132.73,-125.43 136.16,-128.77"/>
<polygon fill="black" stroke="black" points="133.54,-131.11 143.21,-135.43 138.34,-126.02 133.54,-131.11"/>
<text text-anchor="middle" x="176.12" y="-107.25" font-family="Arial" font-size="12.00">Returns PID/Reply</text>
</g>
<!-- GCP&#45;&gt;Frontend -->
<g id="edge10" class="edge">
<title>GCP&#45;&gt;Frontend</title>
<path fill="none" stroke="black" d="M391.62,-86.77C393.43,-92.61 394.97,-98.59 396,-104.4 407.79,-171.02 415.88,-200.65 376,-255.3 365.71,-269.4 351.21,-280.36 335.75,-288.83"/>
<polygon fill="black" stroke="black" points="334.17,-285.71 326.84,-293.35 337.34,-291.95 334.17,-285.71"/>
<text text-anchor="middle" x="421.02" y="-175.57" font-family="Arial" font-size="12.00">Hosts</text>
</g>
<!-- GCP&#45;&gt;PartnerTenant -->
<g id="edge11" class="edge">
<title>GCP&#45;&gt;PartnerTenant</title>
<path fill="none" stroke="black" d="M368.5,-86.64C365.26,-98.14 360.12,-109.82 352,-118.65 333.02,-139.28 306.13,-152.92 280.07,-161.91"/>
<polygon fill="black" stroke="black" points="279.24,-158.5 270.8,-164.9 281.39,-165.16 279.24,-158.5"/>
<text text-anchor="middle" x="376.8" y="-107.25" font-family="Arial" font-size="12.00">Hosts</text>
</g>
</g>
</svg>
