<?xml version="1.0" encoding="UTF-8" standalone="no"?>
<!DOCTYPE svg PUBLIC "-//W3C//DTD SVG 1.1//EN"
 "http://www.w3.org/Graphics/SVG/1.1/DTD/svg11.dtd">
<!-- Generated by graphviz version 12.2.1 (20241206.2353)
 -->
<!-- Title: PMOMaxAppFlow Pages: 1 -->
<svg width="956pt" height="158pt"
 viewBox="0.00 0.00 956.25 158.35" xmlns="http://www.w3.org/2000/svg" xmlns:xlink="http://www.w3.org/1999/xlink">
<g id="graph0" class="graph" transform="scale(1 1) rotate(0) translate(4 154.35)">
<title>PMOMaxAppFlow</title>
<polygon fill="white" stroke="none" points="-4,4 -4,-154.35 952.25,-154.35 952.25,4 -4,4"/>
<!-- CustomerTenant -->
<g id="node1" class="node">
<title>CustomerTenant</title>
<polygon fill="#e3f2fd" stroke="black" points="123.25,-87.27 0,-87.27 0,-47.77 123.25,-47.77 123.25,-87.27"/>
<text text-anchor="middle" x="61.62" y="-69.97" font-family="Arial" font-size="14.00">Customer Tenant:</text>
<text text-anchor="middle" x="61.62" y="-54.22" font-family="Arial" font-size="14.00">User</text>
</g>
<!-- Frontend -->
<g id="node2" class="node">
<title>Frontend</title>
<polygon fill="#f5f5f5" stroke="black" points="374,-87.27 292.75,-87.27 292.75,-47.77 374,-47.77 374,-87.27"/>
<text text-anchor="middle" x="333.38" y="-69.97" font-family="Arial" font-size="14.00">Frontend:</text>
<text text-anchor="middle" x="333.38" y="-54.22" font-family="Arial" font-size="14.00">React SPA</text>
</g>
<!-- CustomerTenant&#45;&gt;Frontend -->
<g id="edge1" class="edge">
<title>CustomerTenant&#45;&gt;Frontend</title>
<path fill="none" stroke="black" d="M123.5,-67.52C171,-67.52 236.24,-67.52 281.1,-67.52"/>
<polygon fill="black" stroke="black" points="281.1,-71.02 291.1,-67.52 281.1,-64.02 281.1,-71.02"/>
<text text-anchor="middle" x="208" y="-70.72" font-family="Times,serif" font-size="14.00">Uploads Text/Document</text>
</g>
<!-- Frontend&#45;&gt;CustomerTenant -->
<g id="edge6" class="edge">
<title>Frontend&#45;&gt;CustomerTenant</title>
<path fill="none" stroke="black" d="M292.55,-51.39C286.66,-49.59 280.61,-48.04 274.75,-47.02 216.28,-36.93 200.1,-39.48 141.25,-47.02 139.19,-47.29 137.1,-47.59 135.01,-47.92"/>
<polygon fill="black" stroke="black" points="134.4,-44.48 125.2,-49.72 135.66,-51.36 134.4,-44.48"/>
<text text-anchor="middle" x="208" y="-50.22" font-family="Times,serif" font-size="14.00">Shows PID/Assistant</text>
</g>
<!-- PartnerTenant -->
<g id="node3" class="node">
<title>PartnerTenant</title>
<polygon fill="#fff9c4" stroke="black" points="648.75,-107.27 494,-107.27 494,-67.77 648.75,-67.77 648.75,-107.27"/>
<text text-anchor="middle" x="571.38" y="-89.97" font-family="Arial" font-size="14.00">Partner Tenant:</text>
<text text-anchor="middle" x="571.38" y="-74.22" font-family="Arial" font-size="14.00">Backend API (Express)</text>
</g>
<!-- Frontend&#45;&gt;PartnerTenant -->
<g id="edge2" class="edge">
<title>Frontend&#45;&gt;PartnerTenant</title>
<path fill="none" stroke="black" d="M347.85,-87.76C358.14,-101.26 373.65,-117.89 392,-125.52 434.57,-143.24 486.43,-128.5 523.23,-112.5"/>
<polygon fill="black" stroke="black" points="524.64,-115.71 532.29,-108.39 521.74,-109.34 524.64,-115.71"/>
<text text-anchor="middle" x="434" y="-136.78" font-family="Times,serif" font-size="14.00">Sends Data</text>
</g>
<!-- Frontend&#45;&gt;PartnerTenant -->
<g id="edge7" class="edge">
<title>Frontend&#45;&gt;PartnerTenant</title>
<path fill="none" stroke="black" d="M374.32,-81.64C380.18,-83.23 386.2,-84.61 392,-85.52 421.16,-90.14 453.35,-91.6 482.26,-91.6"/>
<polygon fill="black" stroke="black" points="482.09,-95.11 492.07,-91.54 482.04,-88.11 482.09,-95.11"/>
<text text-anchor="middle" x="434" y="-94.77" font-family="Times,serif" font-size="14.00">Export Request</text>
</g>
<!-- PartnerTenant&#45;&gt;Frontend -->
<g id="edge5" class="edge">
<title>PartnerTenant&#45;&gt;Frontend</title>
<path fill="none" stroke="black" d="M493.55,-71.26C487.63,-70.38 481.73,-69.61 476,-69.02 446.28,-65.98 412.86,-65.49 385.95,-65.81"/>
<polygon fill="black" stroke="black" points="385.92,-62.31 375.98,-65.98 386.04,-69.31 385.92,-62.31"/>
<text text-anchor="middle" x="434" y="-72.22" font-family="Times,serif" font-size="14.00">Returns Data</text>
</g>
<!-- PartnerTenant&#45;&gt;Frontend -->
<g id="edge8" class="edge">
<title>PartnerTenant&#45;&gt;Frontend</title>
<path fill="none" stroke="black" d="M535.3,-67.45C518.03,-58.7 496.56,-49.44 476,-45.02 439.5,-37.19 428.69,-38.12 392,-45.02 389.82,-45.43 387.62,-45.92 385.42,-46.48"/>
<polygon fill="black" stroke="black" points="384.48,-43.11 375.88,-49.29 386.46,-49.82 384.48,-43.11"/>
<text text-anchor="middle" x="434" y="-48.22" font-family="Times,serif" font-size="14.00">Export File</text>
</g>
<!-- AIParsing -->
<g id="node4" class="node">
<title>AIParsing</title>
<polygon fill="#f3e5f5" stroke="black" points="926.5,-147.27 812.25,-147.27 812.25,-107.77 926.5,-107.77 926.5,-147.27"/>
<text text-anchor="middle" x="869.38" y="-129.97" font-family="Arial" font-size="14.00">AI/Parsing Logic</text>
<text text-anchor="middle" x="869.38" y="-114.22" font-family="Arial" font-size="14.00">(Gemini, Local)</text>
</g>
<!-- PartnerTenant&#45;&gt;AIParsing -->
<g id="edge3" class="edge">
<title>PartnerTenant&#45;&gt;AIParsing</title>
<path fill="none" stroke="black" d="M612.7,-107.61C629.05,-114.73 648.39,-121.87 666.75,-125.52 710.81,-134.29 761.36,-134.77 800.83,-133.07"/>
<polygon fill="black" stroke="black" points="800.85,-136.57 810.66,-132.58 800.5,-129.58 800.85,-136.57"/>
<text text-anchor="middle" x="719.62" y="-137.05" font-family="Times,serif" font-size="14.00">Parse/AI/Export</text>
</g>
<!-- GCP -->
<g id="node5" class="node">
<title>GCP</title>
<polygon fill="#e8f5e9" stroke="black" points="948.25,-47.27 790.5,-47.27 790.5,-7.77 948.25,-7.77 948.25,-47.27"/>
<text text-anchor="middle" x="869.38" y="-29.97" font-family="Arial" font-size="14.00">Google Cloud Platform:</text>
<text text-anchor="middle" x="869.38" y="-14.22" font-family="Arial" font-size="14.00">Cloud Run / GKE</text>
</g>
<!-- PartnerTenant&#45;&gt;GCP -->
<g id="edge9" class="edge">
<title>PartnerTenant&#45;&gt;GCP</title>
<path fill="none" stroke="black" d="M648.99,-72C688.69,-63.95 737.39,-54.07 778.82,-45.68"/>
<polygon fill="black" stroke="black" points="779.43,-49.12 788.54,-43.71 778.04,-42.26 779.43,-49.12"/>
<text text-anchor="middle" x="719.62" y="-71.32" font-family="Times,serif" font-size="14.00">Compliance/Health</text>
</g>
<!-- AIParsing&#45;&gt;PartnerTenant -->
<g id="edge4" class="edge">
<title>AIParsing&#45;&gt;PartnerTenant</title>
<path fill="none" stroke="black" d="M811.86,-112.85C798.99,-109.9 785.33,-107.08 772.5,-105.02 735.99,-99.17 695.39,-95.17 660.36,-92.48"/>
<polygon fill="black" stroke="black" points="660.93,-89.02 650.7,-91.77 660.42,-96 660.93,-89.02"/>
<text text-anchor="middle" x="719.62" y="-108.22" font-family="Times,serif" font-size="14.00">Returns PID/Reply</text>
</g>
<!-- GCP&#45;&gt;Frontend -->
<g id="edge10" class="edge">
<title>GCP&#45;&gt;Frontend</title>
<path fill="none" stroke="black" d="M790.01,-14.25C784.1,-13.56 778.21,-12.97 772.5,-12.52 603.59,0.61 554.09,13.77 392,-35.52 386.25,-37.27 380.44,-39.65 374.83,-42.32"/>
<polygon fill="black" stroke="black" points="373.63,-39 366.35,-46.69 376.84,-45.22 373.63,-39"/>
<text text-anchor="middle" x="571.38" y="-12.86" font-family="Times,serif" font-size="14.00">Hosts</text>
</g>
<!-- GCP&#45;&gt;PartnerTenant -->
<g id="edge11" class="edge">
<title>GCP&#45;&gt;PartnerTenant</title>
<path fill="none" stroke="black" d="M790.35,-17.77C752.35,-15.5 706.42,-16.51 666.75,-28.02 644.31,-34.54 622.05,-48.13 604.8,-60.68"/>
<polygon fill="black" stroke="black" points="602.85,-57.77 596.97,-66.58 607.06,-63.36 602.85,-57.77"/>
<text text-anchor="middle" x="719.62" y="-31.22" font-family="Times,serif" font-size="14.00">Hosts</text>
</g>
</g>
</svg>
